<?xml version="1.0" encoding="utf-8"?>
<!-- Generator: Adobe Illustrator 29.8.3, SVG Export Plug-In . SVG Version: 9.03 Build 0)  -->
<svg version="1.0" id="Layer_1" xmlns="http://www.w3.org/2000/svg" xmlns:xlink="http://www.w3.org/1999/xlink" x="0px" y="0px"
	 viewBox="0 0 667 667" style="enable-background:new 0 0 667 667;" xml:space="preserve">
<style type="text/css">
	.st0{fill:#FFFFFF;}
	.st1{fill:#1E84EF;}
</style>
<g id="n4pKOA_00000010284812944968500980000014651113295312347266_">
	<g>
		<path d="M652.93,333.5c0,176.41-143.01,319.43-319.43,319.43S14.07,509.91,14.07,333.5S157.08,14.07,333.5,14.07
			S652.93,157.08,652.93,333.5z M631.48,333.5c0-164.57-133.41-297.99-297.99-297.99S35.51,168.93,35.51,333.5
			S168.92,631.49,333.5,631.49S631.48,498.07,631.48,333.5z"/>
		<path class="st0" d="M631.48,333.5c0,164.57-133.41,297.99-297.99,297.99S35.51,498.07,35.51,333.5S168.92,35.51,333.5,35.51
			S631.48,168.93,631.48,333.5z M605.21,333.51c0-150.05-121.64-271.69-271.69-271.69S61.82,183.46,61.82,333.51
			S183.46,605.2,333.51,605.2S605.21,483.56,605.21,333.51z"/>
		<path d="M605.21,333.51c0,150.05-121.64,271.69-271.69,271.69S61.82,483.56,61.82,333.51S183.46,61.82,333.51,61.82
			S605.21,183.46,605.21,333.51z M354.29,205.06c1.67-0.42,1.91,0.69,2.88,1.43c7.66,5.87,19.14,23.02,28.33,24.34
			c8.65,1.25,16.07-1.72,19.58-9.95c3.68-8.63,1.22-13.8-4.32-20.62c-10.15-12.51-38.25-40.68-50.75-50.77
			c-9.02-7.28-16.89-7.28-25.9,0c-12.2,9.85-40.99,38.57-50.75,50.77c-5.78,7.23-8.25,13.18-3.72,21.94
			c3.79,7.35,10.99,9.78,18.98,8.63c9.19-1.32,20.67-18.47,28.33-24.34c0.97-0.74,1.21-1.85,2.88-1.43v113.02H206.79
			c-0.42-1.67,0.69-1.91,1.43-2.88c6.22-8.11,23.3-19,24.45-29.18c1.96-17.41-16.81-25.83-30.2-14.84
			c-14.11,11.58-30.16,30.51-43.1,44.02c-2.08,2.17-5.33,3.93-7.67,6.7c-6.83,8.07-8.78,15.96-1.93,24.94
			c18.46,15.74,35.11,38.59,53.64,53.64c13.28,10.79,30.83,1.71,29.23-14.87c-1.09-11.35-19.2-20.75-24.95-29.64
			c-0.76-1.18-1.17-1.9-0.91-3.4h110.63c0.32,0,1.45,1.27,2.39,0.96v113.02c-1.67,0.42-1.91-0.69-2.88-1.43
			c-8.67-6.64-20.06-24.94-31.21-25.29c-14.83-0.47-24.11,17.11-14.3,28.66c16.75,15.22,31.4,32.96,47.77,48.49
			c8.26,7.83,17.07,14.99,28.42,6.59c18.52-13.7,36.44-40.2,55.07-55.08c11.25-14.02-2.79-33.28-19.65-27.31
			c-7.82,2.77-18.53,18.33-25.86,23.94c-0.97,0.74-1.21,1.85-2.88,1.43V353.52l113.01-0.96c0.27,1.44-0.16,2.24-0.9,3.4
			c-5.68,8.8-23.8,18.39-24.95,29.64c-1.65,16.31,15.59,25.4,28.75,15.35c18.42-14.07,35.66-39.05,54.12-54.12
			c6.32-8.27,5.43-16.13-0.95-24.02c-17.65-14.87-33.63-36.91-51.26-51.2c-18.96-15.36-39.67,5.45-26.83,23
			c5.12,7,15.23,13.58,20.6,20.59c0.74,0.97,1.85,1.21,1.43,2.88H355.73l-1.44-1.44V205.06z"/>
		<path class="st1" d="M354.29,205.06v111.58l1.44,1.44h111.58c0.42-1.67-0.69-1.91-1.43-2.88c-5.37-7.01-15.48-13.59-20.6-20.59
			c-12.84-17.55,7.87-38.36,26.83-23c17.63,14.29,33.6,36.33,51.26,51.2c6.38,7.89,7.27,15.75,0.95,24.02
			c-18.45,15.07-35.69,40.05-54.12,54.12c-13.17,10.06-30.41,0.96-28.75-15.35c1.14-11.26,19.26-20.85,24.95-29.64
			c0.74-1.15,1.18-1.96,0.9-3.4l-113.01,0.96v113.02c1.67,0.42,1.91-0.69,2.88-1.43c7.33-5.61,18.04-21.17,25.86-23.94
			c16.86-5.97,30.9,13.29,19.65,27.31c-18.63,14.88-36.55,41.38-55.07,55.08c-11.36,8.4-20.17,1.24-28.42-6.59
			c-16.37-15.53-31.02-33.27-47.77-48.49c-9.81-11.55-0.53-29.13,14.3-28.66c11.15,0.35,22.54,18.66,31.21,25.29
			c0.97,0.74,1.21,1.85,2.88,1.43V353.52c-0.94,0.31-2.08-0.96-2.39-0.96H206.79c-0.26,1.5,0.15,2.22,0.91,3.4
			c5.75,8.89,23.86,18.29,24.95,29.64c1.59,16.58-15.95,25.66-29.23,14.87c-18.52-15.05-35.17-37.9-53.64-53.64
			c-6.85-8.97-4.9-16.86,1.93-24.94c2.34-2.77,5.59-4.52,7.67-6.7c12.93-13.52,28.98-32.44,43.1-44.02
			c13.39-10.99,32.17-2.57,30.2,14.84c-1.15,10.18-18.24,21.07-24.45,29.18c-0.74,0.97-1.85,1.21-1.43,2.88h113.02V205.06
			c-1.67-0.42-1.91,0.69-2.88,1.43c-7.66,5.87-19.14,23.02-28.33,24.34c-7.99,1.15-15.18-1.28-18.98-8.63
			c-4.53-8.77-2.06-14.72,3.72-21.94c9.77-12.2,38.55-40.92,50.75-50.77c9.01-7.28,16.89-7.28,25.9,0
			c12.5,10.09,40.6,38.27,50.75,50.77c5.54,6.82,8,11.99,4.32,20.62c-3.5,8.23-10.92,11.2-19.58,9.95
			c-9.19-1.32-20.67-18.47-28.33-24.34C356.21,205.75,355.96,204.64,354.29,205.06z"/>
	</g>
</g>
</svg>
